<svg width="30" height="30" viewBox="0 0 30 30" fill="none" xmlns="http://www.w3.org/2000/svg">
<path d="M19.6337 12.1337L16.7675 15L19.6337 17.8663C20.1225 18.355 20.1225 19.145 19.6337 19.6337C19.39 19.8775 19.07 20 18.75 20C18.43 20 18.11 19.8775 17.8663 19.6337L15 16.7675L12.1337 19.6337C11.89 19.8775 11.57 20 11.25 20C10.93 20 10.61 19.8775 10.3663 19.6337C9.8775 19.145 9.8775 18.355 10.3663 17.8663L13.2325 15L10.3663 12.1337C9.8775 11.645 9.8775 10.855 10.3663 10.3663C10.855 9.8775 11.645 9.8775 12.1337 10.3663L15 13.2325L17.8663 10.3663C18.355 9.8775 19.145 9.8775 19.6337 10.3663C20.1225 10.855 20.1225 11.645 19.6337 12.1337ZM30 15C30 23.2712 23.2712 30 15 30C6.72875 30 0 23.2712 0 15C0 6.72875 6.72875 0 15 0C23.2712 0 30 6.72875 30 15ZM27.5 15C27.5 8.1075 21.8925 2.5 15 2.5C8.1075 2.5 2.5 8.1075 2.5 15C2.5 21.8925 8.1075 27.5 15 27.5C21.8925 27.5 27.5 21.8925 27.5 15Z" fill="#3D5675"/>
</svg>
