<svg width="40" height="40" viewBox="0 0 40 40" fill="none" xmlns="http://www.w3.org/2000/svg">
<g clip-path="url(#clip0_131_65)">
<path d="M28.121 13.8564C27.9474 13.4069 27.6817 12.9988 27.3408 12.6583C26.9999 12.3177 26.5915 12.0524 26.1418 11.8793C25.5227 11.65 24.8687 11.5288 24.2085 11.521C23.1106 11.471 22.7814 11.4585 20.0002 11.4585C17.2189 11.4585 16.8897 11.471 15.7918 11.521C15.1309 11.5286 14.4762 11.6498 13.8564 11.8793C13.4069 12.0529 12.9988 12.3186 12.6583 12.6595C12.3177 13.0004 12.0524 13.4088 11.8793 13.8585C11.65 14.4777 11.5288 15.1316 11.521 15.7918C11.471 16.8897 11.4585 17.2189 11.4585 20.0002C11.4585 22.7814 11.471 23.1106 11.521 24.2085C11.5286 24.8694 11.6498 25.5241 11.8793 26.1439C12.0529 26.5934 12.3186 27.0015 12.6595 27.3421C13.0004 27.6826 13.4088 27.9479 13.8585 28.121C14.4777 28.3503 15.1316 28.4715 15.7918 28.4793C16.8897 28.5293 17.2189 28.5418 20.0002 28.5418C22.7814 28.5418 23.1106 28.5293 24.2085 28.4793C24.8694 28.4718 25.5241 28.3506 26.1439 28.121C26.5934 27.9474 27.0015 27.6817 27.3421 27.3408C27.6826 26.9999 27.9479 26.5915 28.121 26.1418C28.3503 25.5227 28.4715 24.8687 28.4793 24.2085C28.5293 23.1106 28.5418 22.7814 28.5418 20.0002C28.5418 17.2189 28.5293 16.8897 28.4793 15.7918C28.4718 15.1309 28.3506 14.4762 28.121 13.8564ZM20.0002 25.3502C18.942 25.3502 17.9077 25.0364 17.0279 24.4485C16.1481 23.8607 15.4623 23.0251 15.0574 22.0475C14.6525 21.0699 14.5465 19.9942 14.753 18.9564C14.9594 17.9186 15.4689 16.9654 16.2171 16.2171C16.9654 15.4689 17.9186 14.9594 18.9564 14.753C19.9942 14.5465 21.0699 14.6525 22.0475 15.0574C23.0251 15.4623 23.8607 16.1481 24.4485 17.0279C25.0364 17.9077 25.3502 18.942 25.3502 20.0002C25.3502 21.4191 24.7865 22.7799 23.7832 23.7832C22.7799 24.7865 21.4191 25.3502 20.0002 25.3502ZM25.5606 15.6897C25.3134 15.6897 25.0717 15.6164 24.8661 15.4791C24.6606 15.3417 24.5003 15.1465 24.4057 14.9181C24.3111 14.6897 24.2864 14.4384 24.3346 14.1959C24.3828 13.9534 24.5019 13.7307 24.6767 13.5559C24.8515 13.381 25.0742 13.262 25.3167 13.2138C25.5592 13.1655 25.8105 13.1903 26.0389 13.2849C26.2673 13.3795 26.4626 13.5397 26.5999 13.7453C26.7373 13.9508 26.8106 14.1925 26.8106 14.4397C26.8106 14.7713 26.6789 15.0892 26.4445 15.3236C26.21 15.5581 25.8921 15.6897 25.5606 15.6897Z" fill="white"/>
<path d="M19.9998 23.4727C21.9178 23.4727 23.4727 21.9178 23.4727 19.9998C23.4727 18.0817 21.9178 16.5269 19.9998 16.5269C18.0817 16.5269 16.5269 18.0817 16.5269 19.9998C16.5269 21.9178 18.0817 23.4727 19.9998 23.4727Z" fill="white"/>
<path d="M20 0C16.0444 0 12.1776 1.17298 8.8886 3.37061C5.59962 5.56824 3.03617 8.69181 1.52242 12.3463C0.00866565 16.0009 -0.387401 20.0222 0.384303 23.9018C1.15601 27.7814 3.06082 31.3451 5.85787 34.1421C8.65492 36.9392 12.2186 38.844 16.0982 39.6157C19.9778 40.3874 23.9992 39.9913 27.6537 38.4776C31.3082 36.9638 34.4318 34.4004 36.6294 31.1114C38.827 27.8224 40 23.9556 40 20C40 14.6957 37.8929 9.60859 34.1421 5.85786C30.3914 2.10714 25.3043 0 20 0ZM30.3542 24.2958C30.3363 25.1596 30.1722 26.014 29.8688 26.8229C29.6012 27.5147 29.1921 28.143 28.6676 28.6676C28.1431 29.1921 27.5148 29.6012 26.8229 29.8687C26.014 30.1722 25.1596 30.3363 24.2958 30.3542C23.1833 30.4042 22.8292 30.4167 20 30.4167C17.1708 30.4167 16.8167 30.4042 15.7042 30.3542C14.8404 30.3363 13.986 30.1722 13.1771 29.8687C12.4853 29.6012 11.857 29.1921 11.3325 28.6676C10.8079 28.143 10.3988 27.5147 10.1313 26.8229C9.82784 26.014 9.66372 25.1596 9.64584 24.2958C9.59584 23.1833 9.58334 22.8292 9.58334 20C9.58334 17.1708 9.59584 16.8167 9.64584 15.7042C9.66372 14.8404 9.82784 13.986 10.1313 13.1771C10.3988 12.4853 10.8079 11.857 11.3325 11.3324C11.857 10.8079 12.4853 10.3988 13.1771 10.1312C13.986 9.82784 14.8404 9.66371 15.7042 9.64583C16.8167 9.59583 17.1708 9.58333 20 9.58333C22.8292 9.58333 23.1833 9.59583 24.2958 9.64583C25.1596 9.66371 26.014 9.82784 26.8229 10.1312C27.5148 10.3988 28.1431 10.8079 28.6676 11.3324C29.1921 11.857 29.6012 12.4853 29.8688 13.1771C30.1722 13.986 30.3363 14.8404 30.3542 15.7042C30.4042 16.8167 30.4167 17.1708 30.4167 20C30.4167 22.8292 30.4042 23.1833 30.3542 24.2958Z" fill="white"/>
</g>
<defs>
<clipPath id="clip0_131_65">
<rect width="40" height="40" fill="white"/>
</clipPath>
</defs>
</svg>
