<svg width="40" height="40" viewBox="0 0 40 40" fill="none" xmlns="http://www.w3.org/2000/svg">
<g clip-path="url(#clip0_131_95)">
<path d="M39.5312 20.0688C39.5312 30.8553 30.7864 39.6001 20 39.6001C9.21352 39.6001 0.46875 30.8553 0.46875 20.0688C0.46875 9.28236 9.21352 0.537598 20 0.537598C30.7864 0.537598 39.5312 9.28236 39.5312 20.0688Z" fill="white"/>
<path d="M31.6688 21.6396V29.6924H27.0006V22.1802C27.0006 20.2932 26.3274 19.0046 24.6358 19.0046C23.3473 19.0046 22.5805 19.8733 22.2422 20.7131C22.1182 21.0123 22.0875 21.4288 22.0875 21.8505V29.6925H17.4177C17.4177 29.6925 17.4806 16.968 17.4177 15.6508H22.0875V17.6413C22.0791 17.6566 22.0655 17.6716 22.0569 17.687H22.0875V17.6413C22.7081 16.686 23.8147 15.3208 26.295 15.3208C29.367 15.3208 31.6688 17.3284 31.6688 21.6396ZM12.5354 8.88281C10.9373 8.88281 9.89355 9.93172 9.89355 11.3088C9.89355 12.6568 10.9068 13.7345 12.4742 13.7345H12.5031C14.1317 13.7345 15.1449 12.6569 15.1449 11.3088C15.1143 9.9318 14.1317 8.88281 12.5354 8.88281ZM10.1707 29.6925H14.8371V15.6508H10.1707V29.6925Z" fill="#1B3148"/>
</g>
<defs>
<clipPath id="clip0_131_95">
<rect width="40" height="40" fill="white"/>
</clipPath>
</defs>
</svg>
