<svg width="90" height="90" viewBox="0 0 90 90" fill="none" xmlns="http://www.w3.org/2000/svg">
<g filter="url(#filter0_d_910_2937)">
<circle cx="45" cy="39" r="30" fill="white"/>
</g>
<g clip-path="url(#clip0_910_2937)">
<path d="M58.1578 45.1819C58.1081 45.1406 52.4934 41.1225 50.97 41.3859C50.2378 41.5153 49.8188 42.0141 48.9797 43.0144C48.8447 43.1756 48.5194 43.5609 48.2681 43.8356C47.7378 43.6629 47.2205 43.4523 46.7203 43.2056C44.138 41.9484 42.0516 39.862 40.7944 37.2797C40.5477 36.7795 40.3371 36.2622 40.1644 35.7319C40.44 35.4797 40.8263 35.1544 40.9913 35.0156C41.9859 34.1812 42.4847 33.7622 42.6141 33.0291C42.8794 31.5112 38.8594 25.8919 38.8181 25.8413C38.6351 25.5816 38.3966 25.3659 38.12 25.2096C37.8434 25.0533 37.5356 24.9604 37.2188 24.9375C35.5894 24.9375 30.9375 30.9713 30.9375 31.9884C30.9375 32.0475 31.0228 38.0512 38.4262 45.5822C45.9488 52.9772 51.9525 53.0625 52.0116 53.0625C53.0287 53.0625 59.0625 48.4106 59.0625 46.7812C59.0397 46.4643 58.9466 46.1563 58.7902 45.8797C58.6337 45.6031 58.4177 45.3648 58.1578 45.1819ZM51.9084 51.1819C51.0891 51.1144 46.0509 50.4497 39.7519 44.2612C33.5316 37.9284 32.8837 32.8763 32.8191 32.0934C34.0479 30.1647 35.532 28.411 37.2309 26.88C37.2684 26.9175 37.3181 26.9738 37.3819 27.0469C38.6848 28.8255 39.8073 30.7296 40.7325 32.7309C40.4316 33.0336 40.1136 33.3188 39.78 33.585C39.2627 33.9792 38.7876 34.4259 38.3625 34.9181L38.1347 35.2369L38.2022 35.6222C38.4006 36.4816 38.7045 37.3132 39.1069 38.0981C40.5486 41.0588 42.941 43.4508 45.9019 44.8922C46.6866 45.2952 47.5183 45.5994 48.3778 45.7978L48.7631 45.8653L49.0819 45.6375C49.5759 45.2105 50.0246 44.7336 50.4206 44.2144C50.7141 43.8638 51.1069 43.3959 51.255 43.2638C53.262 44.1881 55.171 45.3119 56.9531 46.6181C57.0309 46.6838 57.0853 46.7344 57.1219 46.7672C55.5912 48.4667 53.8374 49.9511 51.9084 51.18V51.1819Z" fill="#1B3148"/>
</g>
<defs>
<filter id="filter0_d_910_2937" x="0" y="0" width="90" height="90" filterUnits="userSpaceOnUse" color-interpolation-filters="sRGB">
<feFlood flood-opacity="0" result="BackgroundImageFix"/>
<feColorMatrix in="SourceAlpha" type="matrix" values="0 0 0 0 0 0 0 0 0 0 0 0 0 0 0 0 0 0 127 0" result="hardAlpha"/>
<feOffset dy="6"/>
<feGaussianBlur stdDeviation="7.5"/>
<feComposite in2="hardAlpha" operator="out"/>
<feColorMatrix type="matrix" values="0 0 0 0 0.105882 0 0 0 0 0.192157 0 0 0 0 0.282353 0 0 0 0.2 0"/>
<feBlend mode="normal" in2="BackgroundImageFix" result="effect1_dropShadow_910_2937"/>
<feBlend mode="normal" in="SourceGraphic" in2="effect1_dropShadow_910_2937" result="shape"/>
</filter>
<clipPath id="clip0_910_2937">
<rect width="30" height="30" fill="white" transform="translate(30 24)"/>
</clipPath>
</defs>
</svg>
