<svg width="40" height="40" viewBox="0 0 40 40" fill="none" xmlns="http://www.w3.org/2000/svg">
<g clip-path="url(#clip0_131_81)">
<path d="M17.2876 24.0738L24.0776 20L17.2876 15.9263V24.0738Z" fill="white"/>
<path d="M20 0C8.955 0 0 8.95375 0 20C0 31.0462 8.955 40 20 40C31.045 40 40 31.045 40 20C40 8.955 31.045 0 20 0ZM30.86 20.8763C30.86 22.7513 30.6425 24.6263 30.6425 24.6263C30.6425 24.6263 30.43 26.2238 29.78 26.925C28.9537 27.8475 28.0287 27.8525 27.6038 27.9075C24.5638 28.14 20 28.1475 20 28.1475C20 28.1475 14.3525 28.0925 12.615 27.915C12.1313 27.8188 11.0475 27.8463 10.22 26.925C9.56875 26.2225 9.3575 24.6263 9.3575 24.6263C9.3575 24.6263 9.14 22.7525 9.14 20.8763V19.1187C9.14 17.2437 9.3575 15.37 9.3575 15.37C9.3575 15.37 9.57 13.7725 10.22 13.0688C11.0462 12.145 11.9712 12.14 12.3962 12.0875C15.435 11.8525 19.995 11.8525 19.995 11.8525H20.005C20.005 11.8525 24.565 11.8525 27.6038 12.0875C28.0275 12.14 28.9537 12.145 29.78 13.0675C30.4312 13.7713 30.6425 15.3687 30.6425 15.3687C30.6425 15.3687 30.86 17.2437 30.86 19.1187V20.8763Z" fill="white"/>
</g>
<defs>
<clipPath id="clip0_131_81">
<rect width="40" height="40" fill="white"/>
</clipPath>
</defs>
</svg>
